<?xml version="1.0" standalone="no"?><!DOCTYPE svg PUBLIC "-//W3C//DTD SVG 1.1//EN" "http://www.w3.org/Graphics/SVG/1.1/DTD/svg11.dtd"><svg t="1628431381467" class="icon" viewBox="0 0 1064 1024" version="1.1" xmlns="http://www.w3.org/2000/svg" p-id="13313" xmlns:xlink="http://www.w3.org/1999/xlink" width="207.8125" height="200"><defs><style type="text/css"></style></defs><path d="M820.070964 666.88165m-88.484385 0a88.484385 88.484385 0 1 0 176.96877 0 88.484385 88.484385 0 1 0-176.96877 0Z" p-id="13314" fill="#bfbfbf"></path><path d="M546.232035 1023.421671h-462.663449A79.52028 79.52028 0 0 1 0 947.371366V76.118258A79.52028 79.52028 0 0 1 82.701092 0.067954H925.326899a79.52028 79.52028 0 0 1 82.701091 76.050304v543.051224h-57.832931V76.118258c0-9.831598-11.277422-18.217373-24.86816-18.217373H82.701092c-13.590739 0-24.86816 8.385775-24.868161 18.217373v871.253108c0 9.831598 11.277422 18.217373 24.868161 18.217374h462.663449z" p-id="13315" fill="#bfbfbf"></path><path d="M230.175066 215.784787h533.797955v53.495461H230.175066zM235.090865 362.680432h408.878824v53.495461H235.090865zM238.850006 509.286913h303.333724v53.495461H238.850006zM722.91164 780.812524l98.315983 242.898311h-188.246191v-181.017074a59.857084 59.857084 0 0 1 57.832931-61.592072zM1007.160496 842.693761v181.017074H821.227623l108.72591-242.898311h19.952361a59.857084 59.857084 0 0 1 57.254602 61.881237z" p-id="13316" fill="#bfbfbf"></path><path d="M821.516787 767.51095L867.493968 813.488131l-46.266345 210.511869-48.868827-212.246857 49.157991-44.242193z" p-id="13317" fill="#bfbfbf"></path></svg>