<?xml version="1.0" standalone="no"?><!DOCTYPE svg PUBLIC "-//W3C//DTD SVG 1.1//EN" "http://www.w3.org/Graphics/SVG/1.1/DTD/svg11.dtd"><svg t="1628430047609" class="icon" viewBox="0 0 1024 1024" version="1.1" xmlns="http://www.w3.org/2000/svg" p-id="11266" xmlns:xlink="http://www.w3.org/1999/xlink" width="200" height="200"><defs><style type="text/css"></style></defs><path d="M222.793143 222.354286a122.709333 122.709333 0 1 1 78.701714 209.16419l-6.168381-0.585143 7.046095-60.537904a61.756952 61.756952 0 1 0-45.104761-28.428191l2.56 3.730286-49.005715 36.254476a122.63619 122.63619 0 0 1 11.946667-159.597714z" fill="#bfbfbf" p-id="11267"></path><path d="M107.739429 107.76381c140.288-140.263619 367.737905-140.263619 508.050285 0a358.64381 358.64381 0 0 1 94.110476 341.504l-1.852952 6.948571L1012.516571 760.685714c5.607619 5.607619 8.777143 13.092571 8.923429 20.918857l-0.097524 3.364572-17.310476 193.316571a30.47619 30.47619 0 0 1-24.795429 27.233524l-3.120761 0.414476-191.439239 15.408762a30.47619 30.47619 0 0 1-32.036571-23.088762l-0.585143-3.169524-14.043428-102.351238-87.917715-2.608762a30.47619 30.47619 0 0 1-29.184-25.526857l-0.341333-3.096381-5.388191-89.526857-88.454095-4.559238a30.47619 30.47619 0 0 1-17.603047-6.729143l-2.389334-2.145524-50.492952-50.492952-8.045714 2.096762A361.496381 361.496381 0 0 1 147.748571 650.605714l-7.363047-5.583238a30.47619 30.47619 0 0 1 37.449143-48.103619c78.677333 61.244952 183.661714 78.750476 277.528381 47.786667a30.47619 30.47619 0 0 1 28.525714 5.095619l2.56 2.291809 55.05219 55.052191 104.033524 5.363809a30.47619 30.47619 0 0 1 28.525714 25.551238l0.316953 3.04762 5.339428 88.917333 85.869715 2.535619a30.47619 30.47619 0 0 1 28.696381 23.235048l0.585143 3.09638 13.604571 99.352381 137.094095-11.02019 13.750857-153.502476-307.248762-307.248762c-7.314286-7.314286-10.361905-17.798095-8.289523-27.794286l0.902095-3.291428a297.910857 297.910857 0 0 0-71.996953-304.518096c-116.540952-116.46781-305.39581-116.46781-421.888 0A298.447238 298.447238 0 0 0 108.81219 520.045714a30.47619 30.47619 0 1 1-51.638857 32.377905A359.399619 359.399619 0 0 1 107.76381 107.78819z" fill="#bfbfbf" p-id="11268"></path><path d="M588.873143 523.02019a30.47619 30.47619 0 0 1 40.643047-2.194285l2.462477 2.194285L898.681905 789.699048a30.47619 30.47619 0 0 1-40.643048 45.32419l-2.462476-2.218667L588.873143 566.125714a30.47619 30.47619 0 0 1 0-43.105524zM276.967619 283.648a30.47619 30.47619 0 0 1 22.479238 56.56381l-2.925714 1.170285c-49.737143 16.871619-96.060952 107.129905-120.100572 251.513905-23.235048 139.605333-4.559238 260.144762 22.25981 265.386667 10.922667 2.145524 38.64381-29.110857 63.488-89.404953a30.47619 30.47619 0 1 1 56.368762 23.235048c-35.230476 85.455238-80.11581 136.045714-131.510857 126.000762-76.409905-14.872381-99.352381-163.181714-70.729143-335.238095 27.40419-164.59581 82.968381-272.871619 160.670476-299.227429z" fill="#bfbfbf" p-id="11269"></path></svg>