<?xml version="1.0" standalone="no"?><!DOCTYPE svg PUBLIC "-//W3C//DTD SVG 1.1//EN" "http://www.w3.org/Graphics/SVG/1.1/DTD/svg11.dtd"><svg t="1632748699873" class="icon" viewBox="0 0 1024 1024" version="1.1" xmlns="http://www.w3.org/2000/svg" p-id="10690" xmlns:xlink="http://www.w3.org/1999/xlink" width="200" height="200"><defs><style type="text/css"></style></defs><path d="M793.0368 834.49856H231.01952a36.3776 36.3776 0 0 1-36.4288-36.352V312.76544a36.3776 36.3776 0 0 1 36.4288-36.352H793.0368a36.38272 36.38272 0 0 1 36.4288 36.352v485.40672a36.38272 36.38272 0 0 1-36.4288 36.3264z" fill="#64F4AF" p-id="10691"></path><path d="M831.8976 174.92992h-66.23744v64.32256h66.23744a40.81152 40.81152 0 0 1 40.7552 40.77056v546.72384a40.8064 40.8064 0 0 1-40.7552 40.77056H192.10752a40.81152 40.81152 0 0 1-40.76032-40.77056V280.02304a40.81664 40.81664 0 0 1 40.76032-40.77056H250.6752V174.92992H192.10752A105.19552 105.19552 0 0 0 87.04 280.02304v546.72384A105.19552 105.19552 0 0 0 192.10752 931.84H831.8976A105.19552 105.19552 0 0 0 936.96 826.74688V280.02304a105.19552 105.19552 0 0 0-105.0624-105.09312zM404.48 311.1424h209.0496a112.0512 112.0512 0 0 0 0-224.1024H404.48a112.0512 112.0512 0 0 0 0 224.1024z m0-159.77984h209.0496a47.72864 47.72864 0 0 1 0 95.45728H404.48a47.72864 47.72864 0 0 1 0-95.45728z m136.54016 575.5904v-114.63168h121.76896v-64.32256h-121.78432v-114.6368H476.70272v114.6368H354.92864v64.32256h121.77408v114.63168h64.30208z" fill="#242F44" p-id="10692"></path></svg>