<?xml version="1.0" standalone="no"?><!DOCTYPE svg PUBLIC "-//W3C//DTD SVG 1.1//EN" "http://www.w3.org/Graphics/SVG/1.1/DTD/svg11.dtd"><svg t="1632749601957" class="icon" viewBox="0 0 1024 1024" version="1.1" xmlns="http://www.w3.org/2000/svg" p-id="20571" xmlns:xlink="http://www.w3.org/1999/xlink" width="200" height="200"><defs><style type="text/css"></style></defs><path d="M891.8 753h-86.5V528.2c0-47.7-38.7-86.5-86.5-86.5h-86.5V753h-34.6V268.8c0-38.2-31-69.2-69.2-69.2H252c-38.2 0-69.2 31-69.2 69.2V753h-51.9c-19.1 0-34.6 15.5-34.6 34.6s15.5 34.6 34.6 34.6h760.9c19.1 0 34.6-15.5 34.6-34.6-0.1-19.1-15.6-34.6-34.6-34.6zM338.4 286.1H373v-34.6h34.6v34.6h34.6v34.6h-34.6v34.6H373v-34.6h-34.6v-34.6zM494 666.5H286.5c-9.5 0-17.3-7.7-17.3-17.3 0-9.6 7.7-17.3 17.3-17.3H494c9.6 0 17.3 7.7 17.3 17.3 0 9.6-7.7 17.3-17.3 17.3z m0-86.4H286.5c-9.5 0-17.3-7.7-17.3-17.3 0-9.6 7.7-17.3 17.3-17.3H494c9.6 0 17.3 7.7 17.3 17.3 0 9.5-7.7 17.3-17.3 17.3z m0-86.5H286.5c-9.5 0-17.3-7.7-17.3-17.3 0-9.5 7.7-17.3 17.3-17.3H494c9.6 0 17.3 7.7 17.3 17.3 0 9.6-7.7 17.3-17.3 17.3z" p-id="20572" fill="#0e932e"></path></svg>