<?xml version="1.0" standalone="no"?><!DOCTYPE svg PUBLIC "-//W3C//DTD SVG 1.1//EN" "http://www.w3.org/Graphics/SVG/1.1/DTD/svg11.dtd"><svg t="1632748362266" class="icon" viewBox="0 0 1024 1024" version="1.1" xmlns="http://www.w3.org/2000/svg" p-id="5814" xmlns:xlink="http://www.w3.org/1999/xlink" width="200" height="200"><defs><style type="text/css"></style></defs><path d="M972.8 870.4a128 128 0 0 1-253.44 25.6256H304.64A128.0512 128.0512 0 0 1 51.2 870.4V230.4a102.4 102.4 0 0 1 102.4-102.4h358.4V102.4a76.8 76.8 0 0 1 153.6 0v25.6c169.6512 0 307.2 137.5488 307.2 307.2v435.2z m-128-76.8l-4.5312 0.128-2.3552 0.1792a77.056 77.056 0 0 0-2.4064 0.256l-1.92 0.256a76.5952 76.5952 0 0 0-7.3472 1.4336l-1.792 0.4864-2.6368 0.768-1.8688 0.6144-2.3808 0.8448a76.032 76.032 0 0 0-4.8896 2.048l-0.768 0.384a76.6464 76.6464 0 0 0-4.352 2.2272l-1.5872 0.896a76.9024 76.9024 0 0 0-30.1568 100.0448l0.256 0.512c1.024 2.0736 2.1504 4.0704 3.328 6.016l0.8704 1.3824a76.9024 76.9024 0 0 0 2.816 4.0448l0.8448 1.1008a77.0816 77.0816 0 0 0 49.664 29.184l1.92 0.256a76.9024 76.9024 0 0 0 4.608 0.384h0.1792L844.8 947.2l4.2752-0.1536-1.8688 0.1024 1.0496-0.0256 0.9216-0.0768h0.128l2.3808-0.1536a77.1072 77.1072 0 0 0 17.7664-3.7376l2.6624-0.9472a76.0064 76.0064 0 0 0 9.9328-4.608l1.8432-1.0752a76.9792 76.9792 0 0 0 25.4464-24.448l0.8704-1.3824c1.1776-1.9456 2.304-3.9424 3.328-5.9904l0.256-0.512c4.992-10.2144 7.808-21.6832 7.808-33.792a76.4928 76.4928 0 0 0-11.264-40.0896l-0.9984-1.536a77.0816 77.0816 0 0 0-4.096-5.7344l-1.1776-1.4848a77.3632 77.3632 0 0 0-32.0256-22.9888l-2.3808-0.8448-1.8688-0.6144a76.032 76.032 0 0 0-2.6112-0.768l-1.8176-0.4864a76.1344 76.1344 0 0 0-7.3472-1.4336l-1.92-0.256a76.9536 76.9536 0 0 0-2.4064-0.256l-2.176-0.1536h-0.2048L844.8 793.6zM179.2 793.6l-4.5312 0.128-2.3552 0.1792a77.056 77.056 0 0 0-2.4064 0.256l-1.92 0.256a76.5952 76.5952 0 0 0-7.3472 1.4336l-1.792 0.4864-2.6368 0.768-1.8688 0.6144-2.3808 0.8448a76.032 76.032 0 0 0-4.8896 2.048l-0.768 0.384a76.6464 76.6464 0 0 0-4.352 2.2272l-1.5872 0.896a76.9024 76.9024 0 0 0-30.1568 100.0448l0.256 0.512c1.024 2.0736 2.1504 4.0704 3.328 6.016l0.8704 1.3824a76.928 76.928 0 0 0 2.816 4.0448l0.8448 1.1008a77.0816 77.0816 0 0 0 49.664 29.184l1.92 0.256a76.9024 76.9024 0 0 0 4.608 0.384h0.1792L179.2 947.2l4.2752-0.1536-1.8688 0.1024 1.0496-0.0256 0.9216-0.0768h0.128l2.3808-0.1536a77.1072 77.1072 0 0 0 17.7664-3.7376l2.6624-0.9472a76.0064 76.0064 0 0 0 9.9328-4.608l1.8432-1.0752a76.9792 76.9792 0 0 0 25.4464-24.448l0.8704-1.3824c1.1776-1.9456 2.304-3.9424 3.328-5.9904l0.256-0.512C253.184 893.952 256 882.4832 256 870.4a76.4928 76.4928 0 0 0-11.264-40.0896l-0.9984-1.536a77.0816 77.0816 0 0 0-4.096-5.7344l-1.1776-1.4848a77.3632 77.3632 0 0 0-32.0256-22.9888l-2.3808-0.8448-1.8688-0.6144a76.032 76.032 0 0 0-2.6112-0.768l-1.8176-0.4864a76.1344 76.1344 0 0 0-7.3472-1.4336l-1.92-0.256a76.9536 76.9536 0 0 0-2.4064-0.256l-2.176-0.1536h-0.2048L179.2 793.6z m0 51.2a25.6 25.6 0 1 1 0 51.2 25.6 25.6 0 0 1 0-51.2z m665.6 0a25.6 25.6 0 1 1 0 51.2 25.6 25.6 0 0 1 0-51.2zM512 179.2H153.6a51.2 51.2 0 0 0-51.072 47.36L102.4 230.4v537.6a128.0512 128.0512 0 0 1 202.24 76.8h414.72a128.0512 128.0512 0 0 1 202.2656-76.8L921.6 588.8H614.4a102.4 102.4 0 0 1-102.4-102.4V179.2z m153.6 0h-102.4v307.2a51.2 51.2 0 0 0 47.36 51.072L614.4 537.6h307.2v-102.4c0-139.008-110.7712-252.1088-248.832-255.8976L665.6 179.2z m-358.4 76.8a25.6 25.6 0 0 1 25.6 25.6v76.8h76.8a25.6 25.6 0 0 1 0 51.2h-76.8v76.8a25.6 25.6 0 0 1-51.2 0v-76.8H204.8a25.6 25.6 0 0 1 0-51.2h76.8v-76.8a25.6 25.6 0 0 1 25.6-25.6z m384-25.6a179.2 179.2 0 0 1 179.072 172.6464l0.128 6.5024a25.6 25.6 0 0 1-51.0208 3.072l-0.1792-3.328A128 128 0 0 0 691.2 281.6a25.6 25.6 0 1 1 0-51.2z m-102.4-153.6a25.6 25.6 0 0 0-25.4208 22.6048L563.2 102.4v25.6h51.2V102.4a25.6 25.6 0 0 0-22.6048-25.4208L588.8 76.8z" fill="#0A515D" p-id="5815"></path><path d="M665.6 179.2l7.168 0.1024c135.68 3.7376 244.992 113.0496 248.7296 248.7296L921.6 435.2v102.4H614.4l-3.84-0.128a51.2 51.2 0 0 1-47.2064-47.0528L563.2 486.4V179.2h102.4z m25.6 51.2a25.6 25.6 0 1 0 0 51.2 128 128 0 0 1 128 127.7184l0.1792 3.328A25.6 25.6 0 0 0 870.4 409.5488l-0.128-6.5024A179.2 179.2 0 0 0 691.2 230.4z" fill="#05D2D0" p-id="5816"></path></svg>