<?xml version="1.0" standalone="no"?><!DOCTYPE svg PUBLIC "-//W3C//DTD SVG 1.1//EN" "http://www.w3.org/Graphics/SVG/1.1/DTD/svg11.dtd"><svg t="1632748953634" class="icon" viewBox="0 0 1024 1024" version="1.1" xmlns="http://www.w3.org/2000/svg" p-id="13123" xmlns:xlink="http://www.w3.org/1999/xlink" width="200" height="200"><defs><style type="text/css"></style></defs><path d="M875.824457 753.138374c0-23.936105-10.938504-45.105072-27.714729-58.254396-10.208788-15.555217-20.634324-45.401293-31.327181-79.322214-10.533909-33.458527-25.44611-45.473542-29.036886-47.958908l-0.101149-0.512968H585.874637l-0.101149 0.512968c-3.569102 2.485367-18.502977 14.500381-29.036887 47.958908-10.685632 33.906471-21.118392 63.738097-31.32718 79.322214-16.769001 13.134874-27.721954 34.303841-27.721955 58.254396 0 30.756414 18.011684 56.961138 43.342196 67.372223a20.15748 20.15748 0 0 0-0.592442 4.826236v26.775492c0 13.553919 13.344396 24.535772 29.802726 24.535771 16.451105 0 29.802726-10.989078 29.802726-24.535771v-26.732143h171.591454v26.732143c0 13.553919 13.344396 24.535772 29.802727 24.535771 16.451105 0 29.802726-10.989078 29.802726-24.535771v-26.775492c0-1.408856-0.216747-2.803262-0.498518-4.147095 26.269749-9.919792 45.083397-36.608585 45.083396-68.051364z m-296.365535-90.672537c4.544464-13.048175 12.246211-32.15082 25.005391-60.154545h164.019756v0.267321l0.606891-0.267321c11.379223 25.00539 18.763074 42.901476 23.437587 55.754579 7.680072 21.038919 8.156916 28.42277 7.282702 30.929811l-0.975362 1.213784c-0.455169 0.158948-0.845314 0-0.845313 0H575.557475s-0.39737 0.158948-0.838089 0l-0.982587-1.213784c-0.809189-2.340869-0.462394-8.850507 5.722123-26.529845z m18.625801 121.970818c-14.803827 0-26.782717-11.986115-26.782716-26.789941s11.97889-26.797166 26.782716-26.797167a26.789942 26.789942 0 1 1 0 53.587108z m177.393052 0a26.789942 26.789942 0 1 1 26.797166-26.789941 26.789942 26.789942 0 0 1-26.797166 26.789941zM635.639771 309.507634c-9.031129-137.273163-148.110518-153.529196-148.110519-153.529196h-298.027262v720.684108h93.923743V554.771428h68.094714c23.712133 1.329382 51.759208 1.784551 81.07064 0h0.093924c19.254367-1.170434 39.021703-3.316231 58.478368-6.841984 99.320746-18.062258 153.507521-101.148647 144.476392-238.42181zM456.664465 447.813959a62.993932 62.993932 0 0 1-9.464623 2.557616H281.872379v-178.816358h163.102193s17.448142 1.654503 29.109135 12.31846c27.505207 26.941665 39.585245 50.950018 42.316259 71.764965 6.769734 51.361838-43.465018 83.267011-59.735501 92.175317z" fill="#00A29A" p-id="13124"></path></svg>