<?xml version="1.0" standalone="no"?><!DOCTYPE svg PUBLIC "-//W3C//DTD SVG 1.1//EN" "http://www.w3.org/Graphics/SVG/1.1/DTD/svg11.dtd"><svg t="1632748590650" class="icon" viewBox="0 0 1024 1024" version="1.1" xmlns="http://www.w3.org/2000/svg" p-id="8648" data-spm-anchor-id="a313x.7781069.0.i12" xmlns:xlink="http://www.w3.org/1999/xlink" width="200" height="200"><defs><style type="text/css"></style></defs><path d="M639.3 798.7H386.7c-29.9 0-54.1 24.2-54.1 54.1 0 29.9 24.2 54.1 54.1 54.1h252.6c29.9 0 54.1-24.2 54.1-54.1 0-29.9-24.2-54.1-54.1-54.1z m216.5-649.6H170.2c-39.9 0-72.2 32.3-72.2 72.2v451.1c0 39.9 32.3 72.2 72.2 72.2h685.7c39.9 0 72.2-32.3 72.2-72.2V221.3c-0.1-39.9-32.4-72.2-72.3-72.2z m-73.7 344.8h-73.3l-81 140.2-34 0.8-15.7-31.3-125.5-203.8-49.5 74.6c-4.7 11.4-15.9 19.4-29 19.4H280c-17.3 0-31.4-14-31.4-31.3s14-31.3 31.4-31.3h64.2l90.1-155.8 34-0.8 31.4 62.7 104.4 181.2L654 432l128.1-0.8c17.3 0 31.4 14 31.4 31.3s-14.1 31.4-31.4 31.4z" p-id="8649" fill="#0e932e" data-spm-anchor-id="a313x.7781069.0.i11" class="selected"></path></svg>