<?xml version="1.0" standalone="no"?><!DOCTYPE svg PUBLIC "-//W3C//DTD SVG 1.1//EN" "http://www.w3.org/Graphics/SVG/1.1/DTD/svg11.dtd"><svg t="1632748274203" class="icon" viewBox="0 0 1024 1024" version="1.1" xmlns="http://www.w3.org/2000/svg" p-id="2787" xmlns:xlink="http://www.w3.org/1999/xlink" width="200" height="200"><defs><style type="text/css"></style></defs><path d="M656.725333 367.274667l-112.64 176.810666-176.810666 112.64 112.64-176.810666 176.810666-112.64M768 256L455.168 455.168 256 768l312.832-199.168L768 256z" fill="#333333" p-id="2788"></path><path d="M455.168 455.168L768 256 568.832 568.832" fill="#19A764" p-id="2789"></path><path d="M512 34.133333A477.866667 477.866667 0 1 1 34.133333 512 477.866667 477.866667 0 0 1 512 34.133333m0-34.133333a512 512 0 1 0 512 512A512 512 0 0 0 512 0z" fill="#333333" p-id="2790"></path></svg>